<svg width="56" height="56" viewBox="0 0 56 56" xmlns="http://www.w3.org/2000/svg"><g fill="none"><path d="M22.11 10.603c-5.695 1.557-8.87 5.643-10.756 11.734-1.193 3.853-3.733 6.266-3.733 6.266l17.94-5.06 17.76-4.806c-.02 0-3.136-.68-6.08-3.425-4.66-4.32-9.43-6.246-15.126-4.71z" fill="#000"/><path d="M55.692 24.166c-1.56-5.837-15.24-7.22-30.58-3.113C9.777 25.178-1.385 33.35.172 39.21c1.08 4.066 7.988 5.992 17.245 5.39-.385-.35-.635-.74-.77-1.227-.847-3.19 4.773-6.48 12.143-8.465 7.37-2.004 13.816-1.887 14.644 1.207.134.486.096.953-.058 1.46 8.352-4.165 13.413-9.322 12.316-13.41z" fill="#4981D7"/><path d="M31.348 44.58c7.43-2.005 12.97-5.39 12.163-8.504-.804-3.114-7.29-3.23-14.72-1.226-7.43 2.004-12.99 5.37-12.16 8.504.828 3.152 7.294 3.25 14.72 1.225z" fill="#E7E7E7"/></g></svg>
