<svg xmlns="http://www.w3.org/2000/svg" width="77.855" height="38.04"><path d="M10.14 30.11h1.59V7.45H1.81v22.66h1.58V8.75h6.75zm9.23.32c2.76 0 4.88-3.1 4.88-8.4 0-5.48-2.12-8.21-4.88-8.21s-4.88 3.08-4.88 8.4c0 5.45 2.12 8.21 4.88 8.21zm0-1.2c-1.87 0-3.39-2.13-3.39-7.1 0-4.85 1.52-7.07 3.39-7.07s3.39 2.06 3.39 7.07c0 4.82-1.52 7.1-3.39 7.1zm12.04-1.02h1.24l2.66-9.38c.23-.76.35-1.49.51-2.38h.13c-.07.89-.13 1.75-.13 2.82v10.84h1.43V14.14h-1.71l-2.86 9.76c-.31 1.14-.44 1.87-.54 2.7h-.12c-.1-.83-.19-1.56-.51-2.7l-2.79-9.76h-1.74v15.97h1.26V19.27c0-1.14-.09-1.93-.15-2.79h.12c.19.8.29 1.49.54 2.35zm13.45 2.22c2.75 0 4.88-3.1 4.88-8.4 0-5.48-2.13-8.21-4.88-8.21-2.76 0-4.89 3.08-4.89 8.4 0 5.45 2.13 8.21 4.89 8.21zm0-1.2c-1.87 0-3.4-2.13-3.4-7.1 0-4.85 1.53-7.07 3.4-7.07 1.87 0 3.39 2.06 3.39 7.07 0 4.82-1.52 7.1-3.39 7.1zm22.15 4.02v-4.34h-1.45V14.14h-1.49v14.77h-4.32V14.14h-1.49v14.77h-4.31V14.14h-1.49v15.97h13.19l.19 3.14zm2.38-3.14h2.57c3.01 0 5.1-1.68 5.1-5.07 0-3.33-1.96-4.97-5.01-4.97h-1.17v-5.93h-1.49zm2.6-8.87c2.28 0 3.61 1.14 3.61 3.83 0 2.76-1.52 3.87-3.77 3.87h-.95v-7.7z"/></svg>